<svg xmlns="http://www.w3.org/2000/svg" viewBox="0 0 330.71 290.9"><defs><style>.cls-1{fill:#74c08f;}</style></defs><g id="Calque_2" data-name="Calque 2"><g id="Calque_1-2" data-name="Calque 1"><g id="EMfaaC"><path class="cls-1" d="M312.21,148.08c4.07-.21,7.18,1.12,9.14,4.43a10.17,10.17,0,0,1,1.45,4.33,79.8,79.8,0,0,1,.05,11.15,9.68,9.68,0,0,1-8.92,9c-3.87.33-7.73.75-11.6,1a2.54,2.54,0,0,0-2.24,1.36A35.06,35.06,0,0,1,278,195.56c-11.27,2.79-22.52,5.77-33.92,8-11.68,2.27-23.49,3.95-35.3,5.43a193.1,193.1,0,0,1-21.25,1.24,161.73,161.73,0,0,1-30.11-2.62c-14.13-2.45-28.28-4.86-42.3-7.84-14.35-3.06-28.57-6.74-42.83-10.23a90.13,90.13,0,0,1-12.24-3.62c-6.64-2.7-11-7.91-13.83-14.37-.94-2.11-1.59-4.35-2.3-6.35l-9.1-1.43c-6.82-1.08-11-6-11-12.87q0-31.62,0-63.25c0-3.38-.1-6.77,0-10.15a1.85,1.85,0,0,0-1.6-2.2c-3.59-.94-7.13-2-10.69-3.07-2.58-.74-4-2.2-4.17-4.36C7.17,65.5,8.49,64.08,10.47,63q11.41-6,22.79-12Q51.49,41.41,69.7,31.77a5.89,5.89,0,0,1,5.71-.22c2.09,1,4.22,1.95,6.39,2.8a2.82,2.82,0,0,0,2.08,0c11.38-5.71,22.73-11.49,34.1-17.24q16.45-8.33,33-16.59A4.5,4.5,0,0,1,153.48,0c10.5,1.7,21,3.5,31.48,5.22,11.7,1.91,23.41,3.73,35.11,5.64,11.43,1.86,22.85,3.77,34.28,5.66,2.07.34,4.15.62,6.2,1.06a5.25,5.25,0,0,1,4,3.84Q272.94,46,281.43,70.62c.88,2.56,1.87,5.1,2.56,7.71a8.22,8.22,0,0,0,3.28,4.56c7.66,5.84,15.27,11.75,22.92,17.61a5.14,5.14,0,0,1,2,4.48c0,13.7,0,27.4,0,41.1ZM46.28,128.23l.1.45c-.36.11-.71.23-1.08.32l-15.48,3.82c-.73.18-1.51.24-1.49,1.38.07,5.93,0,11.87.15,17.81a6.22,6.22,0,0,0,4.14,6.1c2.68.95,5.56,1.33,8.34,2,1.24.31,1.48-.14,1.57-1.31a83.94,83.94,0,0,1,1-9.39,25.82,25.82,0,0,1,6.64-13.19c6.2-6.56,14.46-6.62,20.75-.15a26.59,26.59,0,0,1,5.5,9.21c2.14,5.5,2.62,11.3,2.94,17.13.17,3,1.63,4.65,4.61,5.23,2.61.51,5.22,1,7.84,1.45q19.39,3.34,38.8,6.65a61.86,61.86,0,0,0,6.76.87c2.15.11,2.76-.64,2.73-2.8,0-.88-.09-1.77-.12-2.66-.43-10.93,2.12-21,8.83-29.8,4-5.28,9.27-8.88,16.1-9.16,7.34-.3,13.09,3.21,17.37,8.87,2.65,3.49,4.63,7.5,6.89,11.23,1.59-1.86,4.08-1.62,6.61-1.39,5.62.51,11.25,1.45,16.86,1.37,11.19-.18,22.37-1,33.56-1.44q29.18-1.26,58.36-2.44c1,0,1.95-.15,2.93-.23v-6.4h-1.73c-5.27.08-10.54.19-15.81.26-2.35,0-3.09-.72-3.09-3.07q0-14.16,0-28.3c0-2.58.68-3.27,3.24-3.23,5.21.09,10.42.22,15.64.32.58,0,1.17,0,1.75,0v-3.41l-103.32-1.69c-.65,11.71-1.29,23.2-1.93,34.7a6.58,6.58,0,0,1-.25-2c-.39-10.81-.82-21.61-1.17-32.42a2.44,2.44,0,0,0-1.45-2.31c-7.91-4.69-15.78-9.45-23.7-14.13a3.54,3.54,0,0,0-2.3-.39q-17.81,3.69-35.59,7.49c-2.05.43-4.11.82-6.16,1.23,13.32-5.25,27.37-7.92,41.15-11.78l-20-78.42L88.38,37.35A39.13,39.13,0,0,0,92.09,39a3.09,3.09,0,0,0,2,0q18.56-7.53,37.06-15.13c.65-.26,1.34-.41,2-.61l.1.34L95.67,40.29v.55c.9.07,1.93.45,2.68.16,4.23-1.65,8.35-3.57,12.58-5.2,5.18-2,10.43-3.81,15.65-5.71l.14.39-26.6,11.79c.25.28.34.45.47.51,3.23,1.47,6.43,3,9.7,4.36,2.4,1,3.61,2.38,3.61,4.83q0,24.23,0,48.44c0,2.91-1.45,4.51-4.29,5L81,110.84l-29.72,5.57c-5.75,1.09-11.44,2.61-17.41,1.43-2.24-.44-4.19-1.92-4.41-4A4.42,4.42,0,0,1,33,108.73a6.85,6.85,0,0,0,1.73-.54c.43-.26,1-.78,1-1.18q.08-13.32,0-26.63c0-.4-.29-1.06-.59-1.16-2.17-.72-4.39-1.32-6.75-2v49.35l23.49-4,.1.53-23.51,5.83v2.17ZM302.9,100.86a1.87,1.87,0,0,0-.25-.3c-6.13-4.75-12.25-9.52-18.41-14.23a3.61,3.61,0,0,0-2-.63c-3.93-.22-7.87-.35-11.8-.54L251,84.2V84l29.63-.81c-.22-.77-.34-1.3-.52-1.81Q275.11,66.7,270,52q-4.85-14.13-9.65-28.29c-.32-.93-.62-1.62-1.81-1.81q-27.54-4.47-55.09-9Q185.3,9.91,167.1,7l-10-1.65c.91,3.85,1.73,7.4,2.58,10.94Q164.33,35.8,169,55.33c2.12,8.89,4.21,17.78,6.37,26.65a3.09,3.09,0,0,0,1.25,1.76q12.54,7.52,25.17,14.88a6.93,6.93,0,0,0,3.26.92q39.09.72,78.19,1.3C289.78,100.94,296.32,100.86,302.9,100.86ZM189,167.75h0v3.16c0,1.06,0,2.11,0,3.17,0,3.08,1.67,4.95,4.76,5.35,1.65.21,3.31.4,5,.49,4,.23,7.95.54,11.92.53,3.09,0,6.18-.47,9.27-.7,8-.61,16-1.19,24-1.81q20.57-1.59,41.12-3.22,14.1-1.11,28.18-2.27a5.39,5.39,0,0,0,5.15-5.17,97.71,97.71,0,0,0-.05-10,4.78,4.78,0,0,0-5.12-4.6c-1.11,0-2.22,0-3.33.07l-46.86,2c-10.57.46-21.15,1-31.72,1.39-12.11.47-24.24,1.73-36.31-.64-3.25-.64-5.88,1.73-6,5.07C188.88,163,189,165.37,189,167.75Zm-79.66-116L96.36,46c-7.44-3.32-14.88-6.63-22.3-10a2.68,2.68,0,0,0-2.63.08C66,39,60.47,41.91,55,44.8L22.34,62l-10.22,5.4a7.91,7.91,0,0,0,.81.4c8.82,2.57,17.65,5.16,26.49,7.68a4.05,4.05,0,0,0,2.23-.14c4-1.35,8.05-2.79,12.07-4.19,7.89-2.76,15.78-5.54,23.67-8.27,7.43-2.57,14.88-5.08,22.3-7.65C102.77,54.17,105.81,53,109.3,51.73Zm45.27,115.92a51.28,51.28,0,0,0,.54,5.39c.81,4.33,2,8.54,5.28,11.77,3.09,3.07,6.85,2.95,9.75-.29a15.74,15.74,0,0,0,2.21-3.1c3.11-5.87,3.8-12.21,3.17-18.71a26.46,26.46,0,0,0-4-12.36c-3.67-5.52-9-5.57-12.71-.07C155.54,155.21,154.64,160.79,154.57,167.65Zm-12.64,13a23.48,23.48,0,0,1-4.61.59c-2.59-.17-5.17-.6-7.74-1-12.49-2.11-25-4.28-37.49-6.35a2,2,0,0,0-1.65.8,27.7,27.7,0,0,1-8.88,9.51l-2.4,1.58L145,188.25Zm110.88,11.8a47.1,47.1,0,0,1-10.17-9,1.72,1.72,0,0,0-1.27-.54c-6,.41-11.93,1-17.9,1.31-7.17.43-14.31,1.68-21.53.66-.42-.06-1.14.06-1.3.34-.92,1.6-1.71,3.27-2.64,5.11Zm51.5-55.2V111.75H292.72v25.47ZM53.16,157.91a23.13,23.13,0,0,0,0,2.5c.4,3.85,1.27,7.54,3.94,10.54a4.55,4.55,0,0,0,7.11.19,11.73,11.73,0,0,0,1.92-2.68c2.61-5.12,2.78-10.53,1.79-16.05a14.35,14.35,0,0,0-3.48-7.6c-2.44-2.56-5.54-2.35-7.72.42C53.82,149,53.14,153.35,53.16,157.91Zm54.52-56.86v-.37c-2.07-.13-4.15-.17-6.2-.39A57.32,57.32,0,0,0,80.28,102c-11.16,3-22.49,5.44-33.74,8.13C42.77,111,39,112,35.25,112.91l0,.47a30.47,30.47,0,0,0,5.87.17c5.57-.88,11.1-2,16.65-3.1l35.27-6.65Z"/><path class="cls-1" d="M37.87,172.56c7.63,11.78,17.36,20.11,31.4,22.31C56,196.05,39.86,184.7,37.87,172.56Z"/><path class="cls-1" d="M330.71,165.59c0,13.15-7.42,19.73-21.14,19.68C320.16,182.72,328,177.16,330.71,165.59Z"/><path class="cls-1" d="M37.68,181.29c4.46,7.44,10.37,13.07,19.06,15.2C47.29,196.76,39,190.37,37.68,181.29Z"/><path class="cls-1" d="M3.69,75.86C-2.5,71-.6,60.16,7.15,56.94,1.09,62.51,1.36,68.93,3.69,75.86Z"/><path class="cls-1" d="M120.37,63.2v-22c0-2.89.92-4.21,3.65-5.28l17.66-6.85c4-1.53,6.3-.41,7.37,3.67,2.8,10.71,5.54,21.44,8.31,32.17,1,4,2.09,7.92,3.11,11.89.91,3.54-.38,5.68-3.94,6.52q-15,3.51-29.92,7c-3.76.87-6.21-1.09-6.23-5C120.35,78,120.37,70.58,120.37,63.2Zm32,7.45.26-.08C152.11,68,151.57,65.49,151,63c-1.87-8.6-3.72-17.2-5.61-25.8-.53-2.46-1.93-3.3-4.4-2.69a20.76,20.76,0,0,0-2.51.88l-11.76,4.59c3.72-.48,7.35-1.24,11-1.69,3.12-.38,4.39.59,5.41,3.65,1.43,4.3,2.81,8.63,4.2,13Q149.89,62.73,152.4,70.65Z"/><path class="cls-1" d="M209.18,125.44c0-5.48,0-11,0-16.46,0-2.15.9-3.07,3-3q9.9.24,19.78.52c2,.06,2.71.78,2.71,2.73q0,16.22,0,32.43c0,2-.73,2.72-2.71,2.76q-10,.21-19.95.32c-2,0-2.82-.81-2.82-2.81,0-5.49,0-11,0-16.47Zm6.18-14.59v29h13.23v-29Z"/><path class="cls-1" d="M282.45,108v5.63H240.1v-6.54Z"/><path class="cls-1" d="M240,132.84v-6.5h42.39v5.45Z"/><path class="cls-1" d="M282.39,141l-42.28,1.35V135.8l42.28-.58Z"/><path class="cls-1" d="M282.46,117v5.87H240.07V117Z"/><path class="cls-1" d="M119.69,101.18v56.36C117.67,146.22,117,125.64,119.69,101.18Z"/><path class="cls-1" d="M87.92,162c6.3.75,12.65,1.64,19,2.22a63.31,63.31,0,0,0,19-.67,17.93,17.93,0,0,1-7.42,2.57,45.83,45.83,0,0,1-14.08-.51c-5.39-.88-10.7-2.28-16-3.45C88.2,162.1,88,162,87.92,162Z"/><path class="cls-1" d="M166.25,126.26c-12.26.59-22,5.8-28.32,17.07C140.19,132.51,153.06,123.41,166.25,126.26Z"/><path class="cls-1" d="M78.74,143.84c-3.57-9.33-9.22-16-20.29-15.8,2.41-1.55,8.21-.83,12,1.57A17.23,17.23,0,0,1,78.74,143.84Z"/><path class="cls-1" d="M189.17,142.33c-2.5-5.07-5.55-9.69-10.5-12.75C184.74,131.7,187.6,136.48,189.17,142.33Z"/><path class="cls-1" d="M204.06,80.79h-20c-4,0-5.25-1.08-6.14-5q-4.83-21.21-9.74-42.4c-.33-1.46-.64-2.92-1-4.38a4.44,4.44,0,0,1,4.71-5.5c5.84.57,11.68,1.24,17.52,1.88,7.6.83,15.2,1.68,22.81,2.48,2.77.29,4,1.15,4.84,4,1.76,5.94,3.43,11.91,5.16,17.86,2.34,8,4.66,16,7,24.05,1.26,4.24-.71,7-5.16,7ZM177.72,54.18,209.1,47.3c-9.44,5.63-20.09,7.56-30.68,10.05.62,2.63,1.21,5.09,1.84,7.75l39.11-9c-.52-1.77-1-3.3-1.42-4.84-1.18-4.09-2.38-8.18-3.5-12.28-.27-1-.69-1.21-1.66-.94-1.38.4-2.81.63-4.21.94l-28.2,6.2c10.1-5.94,21.45-7.93,32.54-10.38.37-2.51-1.32-2.4-2.8-2.56L180.36,29l-8.61-.92C173.76,36.88,175.72,45.43,177.72,54.18Z"/><path class="cls-1" d="M253.53,80.5q-7,0-14,0c-3.41,0-4.88-1-5.84-4.26q-5.21-17.49-10.38-35c-.55-1.86-1.2-3.68-1.73-5.54-1.25-4.33,1.1-7.23,5.52-6.73q14.12,1.61,28.22,3.32A5.23,5.23,0,0,1,260,36.18c4.16,12.5,8.39,25,12.6,37.44,1.33,4-.77,6.88-4.95,6.88C263,80.51,258.24,80.5,253.53,80.5ZM258.72,47c-.75-2.15-1.45-4.14-2.13-6.11l-21.42,4.67c6.39-3.84,13.61-5.08,20.66-6.73-.07-1.35-.61-1.88-1.94-2-6.28-.66-12.55-1.47-18.82-2.21-3-.36-6-.69-9.26-1.06,1.91,6.49,3.72,12.7,5.62,18.88a1.68,1.68,0,0,0,1.47.64C241.42,51.1,249.92,49.08,258.72,47Zm1,3c-9.61,1.81-17.72,4.55-19.29,6.39L260.36,52C260.12,51.27,259.94,50.65,259.73,50Z"/><path class="cls-1" d="M173.33,14.84a447.15,447.15,0,0,1,73.56,10.1Z"/><path class="cls-1" d="M160.49,166.8a.65.65,0,0,0,.47-.61c.06-2.68.34-5.31,1.85-7.66s3.52-2.26,4.73.16a17.15,17.15,0,0,1,.17,15.52c-1.31,2.83-3.7,2.92-5,.12a51.05,51.05,0,0,1-2.22-7.53Z"/><path class="cls-1" d="M57.37,157.67a54.64,54.64,0,0,1,2-5.7c.64-1.37,1.92-1.29,2.88-.07,2,2.54,2.11,9.06.2,11.7-1.18,1.64-2.54,1.64-3.37-.24A42.57,42.57,0,0,1,57.37,157.67Z"/></g><path class="cls-1" d="M87.05,265.42a5.1,5.1,0,0,1-1.35-.17,2.19,2.19,0,0,1-1.4-1.16q-1-2.1-1.55-8t-.49-12.52q0-5.28.29-9.83a42.71,42.71,0,0,1,.84-6.76,1.88,1.88,0,0,1,1.31-1.42,8.72,8.72,0,0,1,2.25-.31,8.84,8.84,0,0,1,2.72.44,2.35,2.35,0,0,1,1.19.89,1.15,1.15,0,0,1,.23.67,2.34,2.34,0,0,1-.06.5,31.84,31.84,0,0,0-.44,3.6c-.12,1.6-.22,3.24-.29,4.91s-.11,3-.11,3.86v.23l.25-.42a41.3,41.3,0,0,1,2.46-3.64c.63-.84,1.3-1.79,2-2.88s1.47-2.11,2.12-3c.34-.43.66-.88,1-1.34A12.74,12.74,0,0,1,99.63,227a5.51,5.51,0,0,1,4-1.68,5.92,5.92,0,0,1,1.1.1c1.06.15,1.59.56,1.59,1.21a3.1,3.1,0,0,1-.42,1.35,11.89,11.89,0,0,1-1.23,1.85l-.29.4c-1.26,1.69-2.39,3.34-3.37,4.95s-1.92,2.94-3,4.36a29.29,29.29,0,0,1-3.81,4.22.6.6,0,0,0-.23.44.71.71,0,0,0,.11.35l1,2.25.5,1.12c.47,1.14,1,2.26,1.54,3.36a27.18,27.18,0,0,1,1.18,2.83c.27.75.56,1.48.88,2.2a58.08,58.08,0,0,0,3.2,6.23l.09.12a3.86,3.86,0,0,0,.6.81.73.73,0,0,1,.25.52,1,1,0,0,1-.5.8,4.1,4.1,0,0,1-2.14.6l-.52,0a6,6,0,0,1-5.06-2.66,32.58,32.58,0,0,1-2.44-4.08,25,25,0,0,1-1.25-3.75,27.29,27.29,0,0,0-1.12-3.46,4.86,4.86,0,0,0-.06.88c0,.58-.06,1.25-.1,2s-.06,1.45-.09,2.08,0,1,0,1.07l0,.83c0,.45,0,.88,0,1.31s0,.86,0,1.29,0,.87.06,1.3v.16a3.9,3.9,0,0,1-.21,1.25,2.66,2.66,0,0,0-.1.38,1.61,1.61,0,0,1-1.32,1.24A5.1,5.1,0,0,1,87.05,265.42Z"/><path class="cls-1" d="M125.88,265.38q-3.15,0-4.18-2.27a2.82,2.82,0,0,1-.15-.92v-.93q-.36-3.84-.46-7.89a4.12,4.12,0,0,1,.09-.86c0-.15-.14-.22-.4-.22l-4.6.1a.39.39,0,0,0-.28.08.52.52,0,0,0-.09.29q-.57,5.08-1.25,8.91a10.54,10.54,0,0,1-1,3.15,2.38,2.38,0,0,1-1.84.56,4.28,4.28,0,0,1-1.19-.17,1.58,1.58,0,0,1-.83-.48,6.67,6.67,0,0,1-1.16-3.49,40.16,40.16,0,0,1-.25-4.4l0-1.29c0-1.44,0-2.82-.05-4.15s0-2.62,0-3.88c0-2,.09-4,.29-6a27.36,27.36,0,0,1,3.33-11.45l.29-.48a8.23,8.23,0,0,1,1.25-1.72,9.3,9.3,0,0,1,5.7-2.52c.54-.05,1.09-.07,1.63-.07a14.85,14.85,0,0,1,4.26.63,5.35,5.35,0,0,1,2.31,1.45,9.12,9.12,0,0,1,1.52,2.21,16.92,16.92,0,0,1,1.48,3.9,26.42,26.42,0,0,1,.88,5.85c0,.81,0,1.56-.07,2.22l0,.63c0,1.51-.11,3-.27,4.51q-.33,3.14-.5,6.27c-.05.9-.12,1.8-.2,2.71-.12,1.26-.19,2.54-.23,3.83l.06,2.89a2.89,2.89,0,0,1-.56,1.74,2.72,2.72,0,0,1-1.53,1A7.59,7.59,0,0,1,125.88,265.38ZM121,249.25a.29.29,0,0,0,.33-.32q0-3.35.17-6.66c0-.86.06-1.73.06-2.6l0-2.54,0-1.29a13.82,13.82,0,0,0-1.12-5.08,4.84,4.84,0,0,0-.88,1.1l-.23.54a18.83,18.83,0,0,0-1.12,3.11,69.11,69.11,0,0,0-1.33,8.93c-.14,1.45-.31,3-.5,4.51q0,.3.18.3h.09a19.45,19.45,0,0,1,2-.11C119.38,249.14,120.16,249.18,121,249.25Z"/><path class="cls-1" d="M151.35,265.44c-.57,0-1.15,0-1.73,0s-.91,0-1.36,0c-.23,0-.46,0-.68,0a12.69,12.69,0,0,1-3-.36,9,9,0,0,1-2.8-1.2,5.34,5.34,0,0,1-2.52-4.06q-.71-7.67-.71-16.45,0-6,.38-10.87a54.28,54.28,0,0,1,.7-5.64,1.39,1.39,0,0,1,.88-1.06,6.71,6.71,0,0,1,2.54-.52,7,7,0,0,1,2.89.65,1.23,1.23,0,0,1,.75,1.08c.18,2.19.27,4.25.27,6.16v.73c0,1.1,0,2.19-.06,3.29s-.08,2.19-.08,3.29q0,2.91-.27,5.83c-.07.76-.15,2-.24,3.76s-.14,3.52-.14,5.29c0,1.6.06,3,.18,4.16s.33,1.8.63,1.9a19.34,19.34,0,0,0,4.71.58q.83,0,1.68-.06a6.82,6.82,0,0,0,.79-.08,8.69,8.69,0,0,1,1.23-.09,4.49,4.49,0,0,1,1,.11,2.4,2.4,0,0,1,1,.41,1,1,0,0,1,.25.44,2.53,2.53,0,0,1,.08.63,1.61,1.61,0,0,1-.27,1,2.58,2.58,0,0,1-1,.6,8.44,8.44,0,0,1-1.1.28A23.6,23.6,0,0,1,151.35,265.44Z"/><path class="cls-1" d="M166.57,265.42a5.94,5.94,0,0,1-1.77-.27,2.61,2.61,0,0,1-1.56-1.46,12.39,12.39,0,0,1-.9-2.21c-.19-.69-.36-1.43-.5-2.22-.05-.28-.12-.57-.19-.87a35.22,35.22,0,0,1-.54-4.59c-.11-1.79-.16-3.69-.16-5.72q0-4.79.31-9.6t.73-7.95a11.31,11.31,0,0,1,.29-1.59,12.27,12.27,0,0,1,.52-1.55,2.86,2.86,0,0,1,2-1.83,8,8,0,0,1,2.21-.32,7.5,7.5,0,0,1,2.14.32,2.47,2.47,0,0,1,1.44.83,3.56,3.56,0,0,1,.52,1.48,21.9,21.9,0,0,1,.27,3.39c0,.68,0,1.36,0,2,0,.49,0,1,0,1.5l0,1.27c0,1.53,0,3,.11,4.56,0,.33,0,.66,0,1s0,.56,0,.85c0,.46,0,.92,0,1.37l0,4.92c0,1.54,0,3.23-.09,5.08s-.2,3.6-.4,5.27a19.11,19.11,0,0,1-.9,4.17c-.41,1.1-.95,1.72-1.63,1.86A6.69,6.69,0,0,1,166.57,265.42Z"/><path class="cls-1" d="M189.91,265.46a6.12,6.12,0,0,1-2.33-.46,4.93,4.93,0,0,1-2-2,11.19,11.19,0,0,1-1.22-2.57c-.14-.45-.27-.88-.41-1.31-.35-1.1-.68-2.2-1-3.29a34,34,0,0,1-.86-3.48q-.22-1.33-.54-2.67-.21-.93-.39-1.89c-.24-1.26-.45-2.53-.65-3.79,0-.32-.09-.64-.14-1q-.64-3.68-1.46-7.22-.6-2.56-1.1-5.14a16.64,16.64,0,0,1-.3-3.15c0-.3,0-.61,0-.91a1,1,0,0,1,.57-.81,6.54,6.54,0,0,1,2.87-.69,6,6,0,0,1,2.81.73,2.15,2.15,0,0,1,.82.79,6.68,6.68,0,0,1,.51,1l.09.19q1.74,7.18,3.24,14.71t2.4,13a.5.5,0,0,1,0,.12,1,1,0,0,0,.19.48q1-5.43,1.89-10.93,1-6.27,2.23-12.64c0-.12.05-.26.08-.41.13-.74.31-1.62.55-2.64a12.13,12.13,0,0,1,1-2.76,2.6,2.6,0,0,1,1.59-1.49,3.63,3.63,0,0,1,.8-.09,4,4,0,0,1,1.58.34l.21.08a5.58,5.58,0,0,1,.92.4.72.72,0,0,1,.47.62v.08a17.34,17.34,0,0,1-.28,3c-.19,1.08-.39,2.13-.61,3.16-.16.76-.3,1.47-.42,2.14a259.91,259.91,0,0,1-6.1,26.83,4.58,4.58,0,0,1-2,2.63A5.85,5.85,0,0,1,189.91,265.46Z"/><path class="cls-1" d="M224.57,265.38c-2.09,0-3.49-.76-4.18-2.27a2.82,2.82,0,0,1-.15-.92v-.93q-.35-3.84-.45-7.89a4.11,4.11,0,0,1,.08-.86c0-.15-.13-.22-.4-.22l-4.6.1a.39.39,0,0,0-.28.08.52.52,0,0,0-.09.29c-.38,3.39-.79,6.36-1.25,8.91a10,10,0,0,1-1,3.15,2.36,2.36,0,0,1-1.83.56,4.3,4.3,0,0,1-1.2-.17,1.58,1.58,0,0,1-.82-.48,6.77,6.77,0,0,1-1.17-3.49,42.81,42.81,0,0,1-.25-4.4l0-1.29c0-1.44,0-2.82,0-4.15s-.05-2.62-.05-3.88q0-3,.29-6a27.66,27.66,0,0,1,3.33-11.45l.29-.48a8.61,8.61,0,0,1,1.25-1.72,9.35,9.35,0,0,1,5.71-2.52c.54-.05,1.08-.07,1.62-.07a15,15,0,0,1,4.27.63,5.47,5.47,0,0,1,2.31,1.45,9.41,9.41,0,0,1,1.52,2.21,17.89,17.89,0,0,1,1.48,3.9,26.91,26.91,0,0,1,.87,5.85c0,.81,0,1.56-.06,2.22l0,.63c0,1.51-.12,3-.27,4.51-.23,2.09-.39,4.18-.5,6.27-.06.9-.13,1.8-.21,2.71-.11,1.26-.19,2.54-.23,3.83l.06,2.89a2.83,2.83,0,0,1-.56,1.74,2.65,2.65,0,0,1-1.53,1A7.53,7.53,0,0,1,224.57,265.38Zm-4.91-16.13a.29.29,0,0,0,.33-.32q0-3.35.17-6.66c0-.86.06-1.73.06-2.6l0-2.54,0-1.29a13.82,13.82,0,0,0-1.12-5.08,5,5,0,0,0-.87,1.1l-.23.54a18.85,18.85,0,0,0-1.13,3.11,70.9,70.9,0,0,0-1.33,8.93c-.14,1.45-.31,3-.5,4.51,0,.2.06.3.19.3h.08a19.61,19.61,0,0,1,2-.11C218.07,249.14,218.86,249.18,219.66,249.25Z"/><path class="cls-1" d="M242.11,265.46c-2.14,0-3.36-.71-3.67-2.14l-.35-1.29a10.51,10.51,0,0,1-.34-1.3,12.37,12.37,0,0,1-.12-2.1c0-1,0-1.87,0-2.61s0-2.28,0-4.63,0-4.48,0-6.7q0-3.06-.14-6.12l0-1.69a40.41,40.41,0,0,1,.61-8.51c.47-1.59,1.08-2.47,1.83-2.67a8,8,0,0,1,2.52-.42,6.64,6.64,0,0,1,2.5.5,6.21,6.21,0,0,1,2.37,1.5,6.42,6.42,0,0,1,1.06,1.92,36.69,36.69,0,0,1,1.69,4.72c.26.88.54,1.75.83,2.61.6,1.76,1.15,3.54,1.67,5.34s1.09,3.58,1.75,5.36c.38,1.05.73,2.12,1,3.2l.31,1h.14l.05-.43q.08-.68.12-1.32.06-2.53.4-7.18.56-16.47,2.54-16.9a4.83,4.83,0,0,1,1.25-.17c2,0,3,.49,3,1.48l-.62,29.48q-.09,5.86-.73,7.66a2,2,0,0,1-1.66,1.14,18,18,0,0,1-2.17.17,10.53,10.53,0,0,1-2.1-.21q-1.18-.33-5-8.37c-1.1-2.31-2.43-5.63-4-10l0-.06a.78.78,0,0,0-.25-.44l0,3.17c0,.88,0,1.63,0,2.24,0,.82.07,1.64.07,2.44,0,4.73-.32,7.78-.94,9.14l-.29.62C245,265,243.88,265.46,242.11,265.46Z"/><path class="cls-1" d="M143.25,282.45v-1a.61.61,0,0,0-.68-.69h-.24q-.66,0-.66.69v1.91a.56.56,0,0,0,.13.44,3.1,3.1,0,0,0,.42.29l1.46.79a6.46,6.46,0,0,1,.68.42,1.13,1.13,0,0,1,.32.37,2.17,2.17,0,0,1,.11.83V289c0,1.3-.62,1.95-1.87,1.95H142c-1.23,0-1.84-.71-1.84-2.13v-.57h1.54v.62a.61.61,0,0,0,.69.68h.27c.41,0,.62-.23.62-.68v-2a.58.58,0,0,0-.13-.43,3.55,3.55,0,0,0-.42-.29l-1.47-.82a4,4,0,0,1-.69-.44,1,1,0,0,1-.32-.46,2.41,2.41,0,0,1-.09-.73v-2.36c0-1.32.61-2,1.84-2h1c1.23,0,1.85.66,1.85,2v1.12Z"/><path class="cls-1" d="M147.49,290.9V279.35H149V290.9Z"/><path class="cls-1" d="M155.1,284.93v-5.58h1.54V290.9H155.1v-2.3l-1.66-5.26v7.56H151.9V279.35h1.54Z"/><path class="cls-1" d="M164.12,288.2v.74c0,1.3-.62,2-1.85,2h-1c-1.23,0-1.85-.66-1.85-2v-7.63c0-1.31.62-2,1.85-2h1c1.23,0,1.85.65,1.85,2v1.3h-1.54v-1.19c0-.45-.24-.67-.7-.67h-.3c-.41,0-.61.22-.61.67v7.4c0,.45.2.68.61.68H162c.41,0,.62-.23.62-.68v-.62Z"/><path class="cls-1" d="M166.74,290.9V279.35h3.83v1.4h-2.29v3.51h2v1.39h-2v3.85h2.29v1.4Z"/><path class="cls-1" d="M181.38,289.51v1.39h-4.15v-3.56a2.21,2.21,0,0,1,0-.48,1.19,1.19,0,0,1,.17-.36,5.92,5.92,0,0,1,.43-.48l1.56-1.49a3.39,3.39,0,0,0,.28-.31,1.44,1.44,0,0,0,.15-.21.58.58,0,0,0,0-.19,1.86,1.86,0,0,0,0-.26v-2.14a.59.59,0,0,0-.66-.67h-.09a.59.59,0,0,0-.66.67v1.19H177v-1.28c0-1.32.62-2,1.85-2h.81c1.23,0,1.85.66,1.85,2v2.76a1.62,1.62,0,0,1-.09.57,1.72,1.72,0,0,1-.46.59l-1.71,1.64a2.74,2.74,0,0,0-.37.42.64.64,0,0,0-.05.23,2.45,2.45,0,0,0,0,.3v1.67Z"/><path class="cls-1" d="M186.28,290.9c-1.23,0-1.85-.66-1.85-2v-7.59c0-1.32.62-2,1.85-2h1.08c1.23,0,1.85.66,1.85,2v7.59c0,1.32-.62,2-1.85,2Zm.31-10.15c-.41,0-.62.22-.62.67v7.4a.61.61,0,0,0,.7.68h.38c.41,0,.61-.23.61-.68v-7.4a.6.6,0,0,0-.69-.67Z"/><path class="cls-1" d="M196.36,289.51v1.39h-4.15v-3.56a2.14,2.14,0,0,1,0-.48,1,1,0,0,1,.17-.36,4.44,4.44,0,0,1,.43-.48l1.56-1.49a3.39,3.39,0,0,0,.28-.31.83.83,0,0,0,.14-.21.41.41,0,0,0,0-.19,1.86,1.86,0,0,0,0-.26v-2.14a.59.59,0,0,0-.66-.67h-.1a.59.59,0,0,0-.66.67v1.19h-1.54v-1.28c0-1.32.62-2,1.85-2h.8c1.24,0,1.85.66,1.85,2v2.76a1.91,1.91,0,0,1-.08.57,1.85,1.85,0,0,1-.46.59l-1.71,1.64a2.24,2.24,0,0,0-.37.42.64.64,0,0,0,0,.23,2.45,2.45,0,0,0,0,.3v1.67Z"/><path class="cls-1" d="M202.84,285a1.43,1.43,0,0,1,1.21,1.47v2.51c0,1.3-.62,2-1.85,2h-1c-1.24,0-1.85-.66-1.85-2v-.74h1.54v.62c0,.45.2.68.61.68h.35a.61.61,0,0,0,.7-.68v-2.38q0-.75-.9-.75h-.42v-1.31h.22q.9,0,.9-.75v-2.19a.6.6,0,0,0-.69-.67h-.21c-.4,0-.61.22-.61.67v1.17h-1.54v-1.28c0-1.32.61-2,1.85-2h.9c1.23,0,1.85.66,1.85,2v2.3A1.22,1.22,0,0,1,202.84,285Z"/></g></g></svg>